<?xml version="1.0" encoding="utf-8"?>
<!-- Generator: Adobe Illustrator 18.0.0, SVG Export Plug-In . SVG Version: 6.00 Build 0)  -->
<!DOCTYPE svg PUBLIC "-//W3C//DTD SVG 1.1//EN" "http://www.w3.org/Graphics/SVG/1.1/DTD/svg11.dtd">
<svg version="1.1" id="Layer_1" xmlns="http://www.w3.org/2000/svg" xmlns:xlink="http://www.w3.org/1999/xlink" x="0px" y="0px"
	 viewBox="0 0 300 300" enable-background="new 0 0 300 300" xml:space="preserve">
<g id="_x36_nZWbz.tif">
	<g>
		<g>
		</g>
	</g>
</g>
<rect x="-403" y="-133" fill="#535353" width="302" height="412"/>
<g id="_x36_S7BJ4_1_">
	<g>
		<g>
			<path fill="#FFFFFF" d="M23.9,140.8c0-39.1,0-78.1-0.1-117.2c0-1.8,0.4-2.2,2.2-2.2c39.2,0.1,78.5,0.1,117.7,0.1
				c-0.1,1.4-1.3,1.1-2.1,1.2c-10.2,1.1-20.2,3-29.8,6.4c-16.1,5.5-30.6,13.8-43.4,25.1C50.8,69.6,38.4,88.5,31,110.8
				c-2.8,8.4-4.7,17-5.5,25.9C25.3,138.1,25.8,140,23.9,140.8z"/>
			<path fill="#FFFFFF" d="M162.2,21.4c39.3,0,78.6,0,117.9,0c1.7,0,2.1,0.3,2.1,2.1c-0.1,39.3,0,78.6,0,117.9
				c-1.4-0.1-1.1-1.3-1.2-2.1c-0.9-7.6-2.1-15.1-4.1-22.5c-5.2-18.8-14.2-35.6-27-50.3c-12-13.9-26.4-24.6-43.1-32.3
				c-12.5-5.8-25.6-9.5-39.4-11C165.6,22.8,163.4,23.5,162.2,21.4z"/>
			<path fill="#FFFFFF" d="M143.3,279.6c-39.1,0-78.2,0-117.3,0c-1.7,0-2.1-0.3-2.1-2.1c0.1-39.1,0-78.2,0-117.3
				c1.5,0.2,1.2,1.5,1.3,2.4c0.7,6.1,1.7,12.1,3.1,18.1c5,20.6,14.4,38.8,28.4,54.6c18.9,21.4,42.3,34.8,70.1,40.9
				c4.7,1,9.5,1.6,14.3,2.2C142,278.5,143.2,278.2,143.3,279.6z"/>
			<path fill="#FFFFFF" d="M282.1,160.2c0,39.1,0,78.2,0,117.3c0,1.7-0.3,2.1-2.1,2.1c-39.3-0.1-78.6,0-117.9,0
				c0.1-1.4,1.3-1.1,2.1-1.2c10.5-1.1,20.8-3.2,30.8-6.7c15.6-5.5,29.7-13.7,42.3-24.6c15.2-13.3,26.6-29.3,34.3-47.8
				c4.6-11.1,7.6-22.7,8.8-34.7C280.7,163.1,280.1,161.1,282.1,160.2z"/>
			<path fill="#F04A46" d="M282.1,160.2c-1.3,2.7-1,5.7-1.4,8.6c-3.4,23.5-12.5,44.5-27.5,62.9c-19.4,23.8-44.2,38.8-74.2,45.2
				c-5.1,1.1-10.3,1.7-15.6,2.2c-0.5,0-1-0.2-1.3,0.5c-0.7,0-1.4,0-2,0c-0.3-0.3-0.7-0.2-1.1-0.3c-0.5,0.1-1-0.2-1.4,0.3
				c-3.1,0-6.1,0-9.2,0c-0.4-0.4-0.9-0.2-1.4-0.3c-0.4,0-0.8-0.1-1.1,0.3c-0.9,0-1.7,0-2.6,0c-2.7-1.3-5.7-1-8.6-1.4
				c-23.5-3.4-44.5-12.5-62.9-27.5c-23.8-19.4-38.8-44.2-45.2-74.2c-1.1-4.9-1.5-10-2.2-15c-0.1-0.5,0.2-1-0.5-1.3c0-1,0-2,0-3.1
				c0.4-0.5,0.4-1,0-1.5c0-3.4,0-6.8,0-10.2c0.4-0.5,0.4-1,0-1.5c0-1,0-2,0-3.1c1.2-2.7,1-5.7,1.4-8.6c3.4-23.5,12.5-44.5,27.5-62.9
				C72.2,45.6,97,30.6,127,24.1c5.1-1.1,10.3-1.8,15.6-2.2c0.5,0,1,0.2,1.3-0.5c0.7,0,1.4,0,2,0c0.3,0.3,0.7,0.2,1.1,0.3
				c0.5-0.1,1,0.2,1.4-0.3c3.1,0,6.1,0,9.2,0c0.4,0.4,0.9,0.2,1.4,0.3c0.4,0,0.8,0.1,1.1-0.3c0.7,0,1.4,0,2,0c2.9,1.2,6.1,1,9.1,1.4
				c21.3,3,40.6,10.8,57.8,23.6c26.6,19.7,43.3,45.9,50.3,78.3c1.1,5.2,1.8,10.5,2.2,15.8c0,0.4,0.1,0.7,0.5,0.8c0,0.9,0,1.7,0,2.6
				c-0.4,0.5-0.4,1,0,1.5c0,3.4,0,6.8,0,10.2c-0.4,0.5-0.4,1,0,1.5C282.1,158.2,282.1,159.2,282.1,160.2z"/>
			<path fill="#F69B9C" d="M282.1,157.1c-0.8-0.5-0.6-1,0-1.5C282.1,156.1,282.1,156.6,282.1,157.1z"/>
			<path fill="#F69A9C" d="M23.9,155.6c0.6,0.5,0.8,1,0,1.5C23.9,156.6,23.9,156.1,23.9,155.6z"/>
			<path fill="#F69B9C" d="M282.1,145.4c-0.6-0.5-0.8-1,0-1.5C282.1,144.4,282.1,144.9,282.1,145.4z"/>
			<path fill="#F69A9C" d="M23.9,143.9c0.8,0.5,0.6,1,0,1.5C23.9,144.9,23.9,144.4,23.9,143.9z"/>
			<path fill="#F59192" d="M159.2,21.9c-0.6,0.1-1.2,0.2-1.6-0.4c0.5,0,1,0,1.5,0c0.2,0.1,0.2,0.2,0.2,0.3
				C159.3,21.8,159.2,21.9,159.2,21.9z"/>
			<path fill="#F59192" d="M148.4,21.4c-0.4,0.7-1,0.5-1.6,0.4c-0.1-0.1-0.2-0.2-0.1-0.3c0.1-0.1,0.1-0.1,0.2-0.1
				C147.4,21.4,147.9,21.4,148.4,21.4z"/>
			<path fill="#F59091" d="M146.9,279.1c0.6-0.1,1.2-0.2,1.6,0.4c-0.5,0-1,0-1.5,0c-0.2-0.1-0.2-0.2-0.2-0.3
				C146.8,279.2,146.8,279.1,146.9,279.1z"/>
			<path fill="#F59091" d="M157.6,279.6c0.4-0.7,1-0.5,1.6-0.4c0.1,0.1,0.2,0.2,0.1,0.3c-0.1,0.1-0.1,0.1-0.2,0.1
				C158.6,279.6,158.1,279.6,157.6,279.6z"/>
			<path fill="#F8ADAE" d="M159.2,21.9c0-0.1,0-0.3,0-0.4c0.3,0,0.7,0,1,0C160,22,159.6,21.9,159.2,21.9z"/>
			<path fill="#F8ADAE" d="M146.9,21.4c0,0.1,0,0.3,0,0.4c-0.4,0.1-0.8,0.1-1-0.4C146.2,21.4,146.5,21.4,146.9,21.4z"/>
			<path fill="#F8ABAD" d="M146.9,279.1c0,0.1,0,0.3,0,0.4c-0.3,0-0.7,0-1,0C146,279,146.4,279.1,146.9,279.1z"/>
			<path fill="#F8ABAD" d="M159.1,279.6c0-0.1,0-0.3,0-0.4c0.4-0.1,0.8-0.1,1,0.4C159.8,279.6,159.5,279.6,159.1,279.6z"/>
			<path fill="#FFFFFF" d="M152.9,277C83,277,26.4,220.3,26.5,150.4C26.5,80.5,83.2,23.9,153.1,24C223,24,279.6,80.7,279.5,150.6
				C279.5,220.5,222.8,277.1,152.9,277z"/>
			<path fill="#EF4424" d="M31.5,157.8c-1-6.4-0.5-12.9,0.2-19.3c2.2-21.7,9.4-41.7,22.4-59.3c20.2-27.4,47.1-43.9,80.9-49.2
				c7.6-1.2,15.2-1.6,22.8-1.3c0.8,0,1.7,0.2,2.5,0.3c-0.9,1-2,0.6-3.1,0.7c-3.8,0.2-7.6-0.3-11.3,0.9c-2.2,0.7-4.7,0.1-7.1,0.4
				c-1.4,0.1-2.5,0.5-3.5,1.3c-0.9,0.8-1.7,1.6-2.6,2.5C101,66.4,69.3,98.1,37.6,129.8c-2.6,2.6-4.7,5.1-4.4,8.9
				c0.2,2.7-0.2,5.2-0.9,7.8c-0.3,1.1,0,2.2,0,3.3c0.1,1.8,0.1,3.7,0,5.5C32.3,156.2,32.3,157.1,31.5,157.8z"/>
			<path fill="#EF4224" d="M31.6,149c0-3.9,1.7-7.7,1.2-11.5c-0.5-4.5,2.6-6.3,5-8.7c31.8-31.9,63.7-63.7,95.5-95.7
				c2.8-2.8,5.8-3.2,9.1-3c2.5,0.2,4.8-0.9,7.2-1c3.6-0.1,7.1-0.1,10.7-0.1c6.2,0.1,12.3,0.9,18.3,2.6c-3.4,1-5.6,3.6-8,6
				c-6.9,7-14,13.9-20.8,20.9c-6.6,1.1-13.3,1.6-19.8,3.3c-13.5,3.5-25.7,9.5-36.4,18.6c-11.1,9.4-19.4,20.8-25.4,34
				c-0.3,0.6-0.5,1.3-1.1,1.7c-1.5,0.5-2.6,1.5-3.7,2.6c-9.4,9.5-18.9,18.9-28.4,28.4C34.2,148,33.3,149.4,31.6,149z"/>
			<path fill="#E92B25" d="M274,157.7c-0.7,3.2,0,6.6-1,9.7c-0.7,3-1.1,6-1.8,9c-0.2,1-0.6,1.7-1.3,2.4
				c-29.2,28.9-58.2,58.1-87.2,87.2c-1.8,1.8-3.7,2.9-6.3,3.2c-2.1,0.3-4.2,1-6.5,0.9c-1.9,0.7-4,0.5-6,1c-1.4,0.3-1.7-0.5-1.1-1.6
				c0.5-1,1.4-1.7,2.1-2.5c10.9-10.9,21.9-21.9,32.8-32.8c1.6-1.6,3-3.2,3.7-5.4c0.5-0.7,1.2-1.1,2-1.6c13-8.6,23.1-19.9,30.4-33.7
				c1.3-2.4,2.2-5,3.9-7.2c1.6-3.2,4.2-5.5,6.7-7.9c8.3-8.3,16.6-16.6,24.8-24.8c0.5-0.5,1.1-1.1,1.6-1.6c0.7-0.7,1.5-1.6,2.6-1.2
				c1.2,0.5,0.6,1.6,0.7,2.5C274.3,154.7,274.1,156.2,274,157.7z"/>
			<path fill="#E62926" d="M169.8,269.9c3.3,0.1,6.3-1,9.5-1.6c1.3-0.2,1.5-1.5,2.3-2.3c2.8-2.6,5.4-5.4,8.1-8.1
				c25.5-25.5,50.9-51.1,76.6-76.3c3.9-3.8,5.6-7.9,6.1-12.9c0.1-0.5,0-1,0.6-1.3c-0.9,9.5-3.4,18.7-7.1,27.5
				c-17.1,40.7-47.3,65.6-90.4,74.9c-1.8,0.4-3.7,0.5-5.5,0.7c-0.1-0.1-0.2-0.3-0.2-0.4C169.8,270,169.8,269.9,169.8,269.9z"/>
			<path fill="#EF3F24" d="M40.2,196c-3.2-7.2-5.4-14.6-6.6-22.4c-0.5-2.5-0.6-5.1-1.1-7.7c-0.4-1.8,0.4-3.5,1.7-4.9
				c8-8.1,16-16.1,24.1-24.1c0.7-0.7,1.6-1.5,2.7-0.9c1.1,0.6,0.8,1.8,0.6,2.8c-0.4,2-0.2,4.1-0.2,6.1c-0.2,8.5,0.5,17,2.3,25.3
				c0.1,0.7,0.2,1.3,0.1,2c-0.7,1.8-2.7,1.9-3.9,3.1c-5.7,5.9-11.5,11.6-17.4,17.4C41.5,193.7,41.2,195.1,40.2,196z"/>
			<path fill="#EF3E24" d="M149.9,58.1c0.5-1,1.1-1.9,1.9-2.7c7.2-7.1,14.3-14.3,21.4-21.4c1.5-1.5,3.1-2.7,5.3-2.5
				c9.4,1.7,18.4,4.9,26.9,9.2c-6.5,5.8-12.5,12.2-18.7,18.3c-2.1,2.1-2.1,2.1-0.3,4.5c0.4,0.6,0.1,0.9-0.5,1.1
				c-1,0.2-1.8-0.2-2.7-0.5c-9.6-3.4-19.4-5-29.6-5.3C152.5,58.9,151.1,59.2,149.9,58.1z"/>
			<path fill="#ED2F25" d="M129.5,269.6c-10.3-1.9-20.2-5.2-29.6-9.8c-0.7-1.5,0.4-2.5,1.2-3.3c5.9-6.1,11.9-12.1,17.9-18.1
				c1.2-1.2,2.5-1,4-0.5c4.1,1.2,8.2,2.8,12.6,2.7c5.7,0.5,11.4,1.5,17.1,1.7c1.2,0.4,0.9,1.2,0.5,2c-0.5,0.9-1.3,1.6-2,2.3
				c-6.4,6.4-12.7,12.7-19.1,19.1C131.1,266.9,130.1,268.1,129.5,269.6z"/>
			<path fill="#EE3324" d="M135.3,241.2c-4.4,0.1-8.4-1.5-12.5-2.8c-1.6-0.5-2.6-0.4-3.7,0.9c-5.5,5.6-11.1,11.2-16.7,16.7
				c-1.1,1.1-2.1,2.2-2.4,3.8c-8.2-4-16-8.5-22.9-14.5c-0.6-1.5,0.6-2.4,1.4-3.2c5.5-5.7,11.2-11.3,16.8-16.9
				c0.7-0.7,1.4-1.2,2.5-1.1c0.9,0.1,1.5,0.7,2.2,1.1c10,7,20.9,12.1,32.9,14.7C133.7,240,134.9,240,135.3,241.2z"/>
			<path fill="#EA2D25" d="M274,157.7c-0.9-1.1,0.3-2.2,0-3.4c-0.3-1,0.6-2.5-0.6-3c-1.2-0.6-1.8,0.9-2.6,1.6
				c-4.4,4.3-8.7,8.6-13,13c-4.7,4.7-9.3,9.4-14.1,14c-2.1,2.1-4,4.3-5.6,6.8c-0.4-0.6-0.3-1.3-0.1-1.9c4.2-10.2,5.8-20.9,6.9-31.7
				c7.7-6.9,14.8-14.5,22.2-21.8c0.8-0.8,1.6-1.7,2.5-2.5c1.7-1.4,2.1-1.3,2.8,0.9c0.7,4.5,1.7,9,1.8,13.7
				C274.3,148.1,274.8,152.9,274,157.7z"/>
			<path fill="#EF3824" d="M222.9,51c6.9,4.6,13.1,10,18.6,16.2c-5.4,5.3-10.8,10.8-16.2,16.1c-1.5,1.5-2.9,3-3.9,5
				c-1,0.3-1.6-0.5-2.2-1c-4.9-5.2-10.2-9.8-16.2-13.5c-0.6-0.4-1.3-0.9-1.4-1.7c0-1.1,0.6-1.9,1.3-2.7c5.7-5.8,11.4-11.5,17.2-17.2
				C220.9,51.4,221.7,50.8,222.9,51z"/>
			<path fill="#EF3924" d="M63.6,232.8c-5.7-5.9-10.8-12.3-14.8-19.5c-0.1-1.7,1.2-2.7,2.2-3.8c4.9-5.1,10-10.1,15-15.1
				c0.5-0.5,1.2-1,1.8-1.4c2.1-1.5,2.9-1.3,3.5,1.2c0.3,1.1,0.7,1.8,1.7,2.4c3.3,3.3,5.3,7.4,8.2,11c1.2,1.4,2.8,2.5,3,4.6
				C77.4,219.1,70.5,225.9,63.6,232.8z"/>
			<path fill="#EC2F25" d="M272.4,129.6c-0.8-1.6-1.5-1.4-2.6-0.2c-7,7.1-14,14-21,21.1c-1,1-1.9,2-3.4,2.1
				c-0.7-0.5-0.8-1.3-0.8-2.1c0-6.9-1.1-13.7-2.3-20.4c-0.1-0.4-0.1-0.8,0-1.3c0.4-1.5,1.8-2.1,2.8-3.1c5.5-5.5,11-11,16.5-16.5
				c0.8-0.8,1.7-1.7,2.7-2.3c0.7-0.4,1.4-0.8,1.9,0.2c2,6.6,4.8,13,5.9,19.9C272.3,127.9,272.3,128.8,272.4,129.6z"/>
			<path fill="#EB2E25" d="M129.5,269.6c-0.8-1.4,0.2-2.2,1-3c6.9-6.9,13.8-13.8,20.7-20.7c0.9-0.9,1.8-1.8,2.3-3
				c2.3-1.4,4.9-0.9,7.4-1.1c11.8-1.2,23-4.2,33.5-9.6c1.5-0.8,2.9-1.9,4.7-1.8c0.3,1.4,0.3,1.5-1.2,2.3c-3.8,2-7.9,3.6-11.7,5.7
				c-3.1,1.6-6.7,1.8-9.5,4c-0.9,0.7-1.8,1.3-2.6,2.1c-7.6,7.6-15.3,15.2-22.9,22.9c-0.7,0.7-1.9,1.3-1.4,2.5c0.5,1.2,1.8,1,2.9,1.1
				c2.5,0.3,5.1-0.7,7.4,0.7c-6.8,1-13.6,0.3-20.3-0.3C136.4,270.9,132.9,270.6,129.5,269.6z"/>
			<path fill="#EF3C24" d="M72.9,196.9c-1.4-0.1-2.1-0.7-2.1-2.3c0-1.6-0.4-3.1-2.4-1.2c-6.8,6.3-13.6,12.6-19.5,19.9
				c-3.6-5.4-6.5-11.2-8.7-17.3c0-1.5,0.7-2.6,1.7-3.5c5.9-5.9,11.9-11.9,17.8-17.8c1-1,2.1-1.8,3.5-1.7c1.6,2.7,2.2,5.8,3.4,8.7
				c1.8,4.1,3.6,8.2,5.6,12.2C72.8,194.8,73.6,195.7,72.9,196.9z"/>
			<path fill="#EF3B24" d="M222.9,51c-7.5,6.3-14.3,13.3-20.8,20.6c-0.1,0.1-0.1,0.3-0.2,0.5c-0.8,0.4-1.5-0.1-2.2-0.4
				c-3.8-2.1-7.6-4.1-11.6-5.8c-0.7-0.3-1.5-0.5-1.5-1.5c-0.4-0.3-0.7-0.8-1.2-0.9c-1.8-0.6-1.8-1.9-0.8-2.9
				c6.5-6.4,12.6-13.3,19.6-19.2c0.4-0.3,0.9-0.4,1.3-0.6C211.7,43.5,217.5,46.9,222.9,51z"/>
			<path fill="#E92B25" d="M160.2,271.5c-2.8,0-5.6-0.2-8.4,0c-1.6,0.1-2.5-0.7-3-1.8c-0.6-1.1,0.7-1.6,1.3-2.2
				c8-8.1,16-16.2,24.2-24.1c2-1.9,4.2-4.1,7.6-3.7c1.3,0.1,2.1-1.5,3.5-1.9c4.5-1.6,8.7-3.9,12.9-6c0.5-0.3,1-0.6,1.2-1.2
				c0.3-1.5,1.2-1.8,2.5-1.6c-0.2,2-1.4,3.5-2.8,4.9c-11.4,11.3-22.7,22.7-34.1,34.1c-0.8,0.8-2,1.4-1.9,3.1
				c2.3-0.4,4.5-0.7,6.7-1.1c0,0.2,0,0.4,0,0.6C166.7,271.3,163.5,271.6,160.2,271.5z"/>
			<path fill="#EE3724" d="M63.6,232.8c0-0.9,0.6-1.5,1.2-2.1c5.8-5.8,11.6-11.6,17.4-17.4c0.5-0.5,1.1-1.1,1.9-1.1
				c0.9-0.2,1.4,0.4,1.9,1c3.4,3.4,6.8,6.8,10.6,9.7c0.5,0.4,0.9,0.8,0.8,1.5c-1.2,0.1-1.8,1-2.5,1.7c-5.2,5.2-10.3,10.3-15.5,15.5
				c-1.1,1.1-2.1,2.2-2.6,3.7C72.1,241.6,67.6,237.5,63.6,232.8z"/>
			<path fill="#EE3324" d="M252.6,81.1c3.6,4.8,6.7,9.9,9,15.4c-3.5,2.7-6.4,6.1-9.5,9.1c-3.2,3.1-6.3,6.2-9.4,9.3
				c-1.3,1.3-2.7,2.6-1.7,4.8c0.2,0.4,0,1-0.5,1.3c-0.8-0.1-1.1-0.8-1.3-1.4c-2-5.8-4.8-11.1-7.8-16.4c-0.2-0.4-0.4-0.9-0.4-1.4
				c-0.1-1.2,0.7-2,1.5-2.8c5.7-5.7,11.4-11.4,17.1-17.1C250.5,81,251.3,79.8,252.6,81.1z"/>
			<path fill="#EE3624" d="M252.6,81.1c-0.8-0.4-1.4,0-2,0.6c-6.1,6.1-12.1,12.2-18.2,18.3c-0.5,0.5-0.9,1-0.9,1.7
				c-0.9,0-1.3-0.7-1.7-1.3c-2.5-3.7-5.1-7.3-8-10.7c-0.3-0.4-0.6-0.8-0.5-1.4c0-1.4,0.6-2.4,1.5-3.4c5.5-5.5,11-11,16.5-16.5
				c0.6-0.6,1.2-1.2,2.1-1.2C245.7,71.5,249.5,76,252.6,81.1z"/>
			<path fill="#EF4224" d="M60.7,144.5c0-2.1-0.3-4.2,0.4-6.3c0.2-0.6,0.4-1.4-0.5-1.8c-0.7-0.3-1.1,0.2-1.5,0.7
				c-8.2,8.2-16.5,16.4-24.6,24.7c-1.3,1.3-1.9,3-1.3,5.5c0.5,1.9,0.9,4.3,0.4,6.4c-1.3-5.2-2-10.5-2.1-15.9c0-2.9,0-5.9,0.1-8.8
				c1.2-0.5,2.1-1.4,3-2.3c9.8-9.8,19.6-19.6,29.3-29.3c0.8-0.8,1.6-1.8,3-1.5c0.5,1,0.1,1.9-0.3,2.7c-3.1,7.5-3.8,15.5-4.8,23.4
				C61.8,142.9,62,144.1,60.7,144.5z"/>
			<path fill="#EE3024" d="M240.7,121.1c-1.5-3.7,0.8-5.9,3.2-8.2c5.2-5.1,10.4-10.3,15.5-15.5c0.6-0.6,1.1-1.7,2.3-1
				c1.9,3.4,3.6,6.9,4.6,10.7c-1.8-0.3-2.7,1-3.8,2c-5.8,5.8-11.5,11.5-17.3,17.3c-0.7,0.7-1.3,1.7-2.5,1.6
				C241.1,126,240.4,123.7,240.7,121.1z"/>
			<path fill="#FFFFFF" d="M240.7,121.1c0.7,2.3,1.4,4.7,2.1,7c0.6,5.1,2,10,2.3,15.2c0.1,3.1,0.3,6.2,0.4,9.3
				c-0.5,11.8-3,23.2-7.3,34.1c-3.4,7.1-7.1,14-12.1,20.2c-3.4,4.3-7.3,8.2-11.1,12c-3.9,3.9-8.5,6.9-13,10
				c-0.8,0.5-1.7,1.1-2.5,1.6c-8.4,4.4-17.1,8.2-26.5,10.1c-6.4,1.3-12.9,2.1-19.4,2.3c-6.1,0-12.2-0.9-18.2-1.7
				c-8.4-2-16.6-4.6-24.4-8.6c-4.7-2.4-9-5.4-13.4-8.2c-4.7-3.8-9-8-13.3-12.2c-4-4.9-7.7-10-11.2-15.3c-2.6-5.7-5.3-11.4-7.8-17.2
				c-0.9-2.2-1.6-4.5-1.9-6.8c-0.7-4.5-1.4-9-2.1-13.5c-0.7-5-0.4-10-0.5-15c0.7-4.2,1.5-8.5,1.9-12.7c0.6-5.2,2.3-10,4.1-14.9
				c0.1-0.3,0.1-0.6,0.2-1c3.7-7.8,7.7-15.4,13.1-22.3c7.4-9.4,16.3-17,26.6-23c13.4-7.8,28-11.4,43.3-12.4
				c12.6-0.2,24.8,2,36.7,6.2c5.2,2.4,10.3,4.8,15.3,7.8c2.9,2.1,5.8,4.2,8.7,6.3c4,2.9,7.2,6.6,10.8,9.9c3.7,4.2,6.9,8.8,10.2,13.3
				C235.1,107.9,238.1,114.4,240.7,121.1z"/>
			<path fill="#ED2F25" d="M144.8,237.2c-8.1-0.7-16-2.4-23.5-5.6c-0.3-1.5,1-2.1,1.8-2.8c8.3-8.3,16.6-16.6,24.8-24.9
				c27.6-27.6,55.1-55.1,82.7-82.7c0.9-0.9,1.6-2.6,3.5-1.9c3.4,7.3,4.8,15,5.5,23c-1.2,0.7-2.1,1.7-3.1,2.7
				c-29.7,29.7-59.4,59.4-89.2,89.2C146.5,235.1,145.6,236.1,144.8,237.2z"/>
			<path fill="#E92B25" d="M144.8,237.2c-0.6-1.1,0.3-1.5,0.8-2.1c30.6-30.7,61.3-61.3,92-92c0.6-0.6,1-1.5,2.1-0.8
				c1,8.1,0.6,16.1-1.1,24c-0.2,3.8-3.1,5.8-5.5,8.2c-18.7,18.7-37.4,37.5-56.2,56.2c-2.4,2.4-4.4,5.2-8.2,5.5
				C160.9,237.8,152.9,238.3,144.8,237.2z"/>
			<path fill="#EF4124" d="M152.5,63.9c8.4-0.6,16.5,0.2,24.5,3c-1.1,1-2.3,0.5-3.4,0.2c-2.7-1-4.5,0.1-6.3,1.9
				c-19.3,19.4-38.7,38.7-58,58.1c-12.7,12.7-25.3,25.4-38.1,38c-1.1,1.1-1.5,2.9-3.5,2.9c-1.1-3.3-1.5-6.6-1.5-10
				c-0.4-2.3-0.1-4.6-0.2-6.9c0-0.7,0.2-1.1,0.8-1.5c2.1-1.3,3.7-3.3,5.4-5c25.3-25.3,50.6-50.6,76-75.9
				C149.7,67,151.2,65.5,152.5,63.9z"/>
			<path fill="#EE3224" d="M113.2,228c-3-1.2-5.6-2.9-8.2-4.8c-0.8-0.9-1-1.7-0.1-2.6c0.6-0.6,1.2-1.2,1.8-1.8
				c38.2-38.2,76.4-76.4,114.6-114.6c1-1,1.6-2.8,3.6-2.1c2.1,3,4.6,5.6,5.6,9.2c-3.6,0.1-5.6,2.6-7.9,4.9
				c-35.2,35.2-70.4,70.4-105.6,105.6c-1.5,1.5-3.3,2.8-3.1,5.3C114,227.4,113.6,227.7,113.2,228z"/>
			<path fill="#EF4324" d="M66.8,138.3c1-9.2,3.7-18,7.9-26.2c13.6-26.5,35.2-42.4,64.5-47.7c0.5-0.1,1,0,1.5,0
				c0.5,1.3-0.3,2.3-1.1,3.2c-0.8,0.9-1.7,1.7-2.5,2.5c-22,22-44,44-66,65.9C70,137.1,69.1,139,66.8,138.3z"/>
			<path fill="#EE3524" d="M224.9,102c-1.1,0-1.6,0.9-2.3,1.5c-38.9,38.9-77.8,77.7-116.6,116.6c-0.8,0.8-1.8,1.6-1.1,3
				c-2-1.2-3.9-2.5-5.6-4.1c-0.9-0.9-0.9-1.7-0.1-2.6c0.7-0.7,1.4-1.5,2.1-2.2c34-34,68-68,102.1-102.1c4.9-4.9,9.8-9.7,14.6-14.6
				c0.9-0.9,1.8-2.4,3.3-0.6C222.7,98.6,224.1,100.1,224.9,102z"/>
			<path fill="#EE3524" d="M221.4,96.9c-1.3-0.9-2,0.2-2.7,0.9c-4.7,4.7-9.5,9.5-14.2,14.2c-34.5,34.5-69.1,69.1-103.6,103.6
				c-0.9,0.9-2.4,1.6-1.5,3.3c-2.1-1.3-3.9-2.9-5.6-4.6c-0.5-0.8-0.1-1.5,0.4-2.1c0.5-0.6,1.1-1.1,1.6-1.7c39-39,78-78,117-117
				c1.1-1.1,2-2.7,3.9-2.4C218.6,93,220.4,94.7,221.4,96.9z"/>
			<path fill="#EF3824" d="M206.7,82.4c2.4,0.7,3.9,2.6,5.5,4.3c-0.3,1.3-1.5,2-2.4,2.9c-38.5,38.5-76.9,76.9-115.4,115.4
				c-1.7,1.7-3.4,3.3-4.8,5.3c-1.7-1.2-2.8-3-4.1-4.7c-0.8-1.1-0.7-2,0.3-2.9c0.6-0.5,1.1-1.1,1.6-1.6
				c38.9-38.9,77.7-77.7,116.6-116.6C204.9,83.7,205.6,82.8,206.7,82.4z"/>
			<path fill="#EF3A24" d="M206.7,82.4c-0.4,1.1-1.4,1.7-2.1,2.5c-39.1,39.1-78.2,78.2-117.3,117.4c-0.9,0.9-2.2,1.7-1.6,3.4
				c-1.7-1.9-3.4-3.9-4.6-6.2c-0.3-1.3,0.7-1.8,1.4-2.5c38.7-38.8,77.5-77.5,116.2-116.2c0.9-0.9,1.8-2.1,3.4-1.8
				C203.8,79.9,205.4,81,206.7,82.4z"/>
			<path fill="#EF3F24" d="M67.8,167.9c31.6-31.7,63.2-63.3,94.8-95c1.6-1.6,3.3-3.2,4.8-4.9c1.7-2,3.6-2.6,6.1-1.6
				c1.1,0.4,2.3,0.7,3.5,0.5c0.5,0,1.1-0.1,1.4,0.5c-0.2,1.1-1.1,1.7-1.8,2.4c-34.6,34.6-69.1,69.1-103.7,103.7
				c-0.9,0.9-1.7,2.6-3.6,1.5C68.6,172.7,67.8,170.3,67.8,167.9z"/>
			<path fill="#EE3824" d="M89.7,210.3c-0.1-1.3,0.7-2,1.5-2.8c39.9-39.9,79.8-79.8,119.7-119.7c0.4-0.4,0.9-0.8,1.4-1.1
				c1.8,1.3,3.3,2.8,4.6,4.6c-1.1,0.5-2,1.2-2.9,2.1c-39.5,39.5-79,79-118.5,118.5c-0.7,0.7-1.6,1.3-1.6,2.5
				C92.2,213.2,90.9,211.9,89.7,210.3z"/>
			<path fill="#EE3124" d="M234.2,119.4c-1.1,0-1.6,0.8-2.3,1.5c-36.4,36.4-72.8,72.8-109.2,109.2c-0.5,0.5-0.9,1-1.3,1.5
				c-2.1-0.4-3.8-1.5-5.7-2.4c-0.8-0.7-0.6-1.5,0-2.2c0.6-0.6,1.2-1.2,1.8-1.8c36.8-36.8,73.6-73.6,110.4-110.4
				c0.9-0.9,1.6-2.3,3.2-2.1C232.3,114.9,233.4,117.1,234.2,119.4z"/>
			<path fill="#EF3D24" d="M191.5,72.4c2,0.8,3.9,1.7,5.6,3c-0.6,1.6-2.3,2.2-3.4,3.4c-37.4,37.5-74.9,74.9-112.4,112.4
				c-1.1,1.1-1.7,2.8-3.4,3.4c-1.7-1.8-2.5-4.1-3.5-6.3c0.4-1.4,1.6-2.2,2.5-3.1c28-28,56-56,84-84c9-9,18-18,27.1-27
				C189,73.2,189.7,71.8,191.5,72.4z"/>
			<path fill="#EF3D24" d="M191.5,72.4c-1.5,0.1-2.1,1.3-3,2.2C151.2,111.8,114,149,76.7,186.2c-0.7,0.7-1.5,1.4-2.3,2
				c-1-1.5-1.8-3.2-2.1-5c-0.4-1.2,0.2-2.1,0.9-3c0.5-0.6,1.1-1.1,1.6-1.7c35.6-35.6,71.1-71.1,106.7-106.7c0.9-0.9,1.6-2.3,3.2-2.1
				C187.3,69.8,189.3,71.2,191.5,72.4z"/>
			<path fill="#EF3F24" d="M184.8,69.8c-0.7,0.6-1.5,1.2-2.1,1.8c-36,36-71.9,71.9-107.9,107.9c-1.1,1.1-2.2,2.1-2.4,3.8
				c-1.4-2.6-2.3-5.4-3-8.3c1.5,0.2,2.2-1,3.1-1.9c34.6-34.6,69.1-69.1,103.7-103.7c0.7-0.7,1.5-1.4,2.2-2.1
				C180.5,68.3,183,68.1,184.8,69.8z"/>
			<path fill="#EF4224" d="M66.8,138.3c1.4-0.1,2.3-1,3.2-1.9c22.9-22.9,45.9-45.9,68.8-68.8c1-0.9,1.4-2.1,1.9-3.2
				c3.9-0.5,7.8-0.7,11.7-0.4c0.2,1.3-0.8,2-1.6,2.7c-27.2,27.2-54.4,54.6-81.8,81.6c-3.2,3.2-2.5,6.3-2.9,9.6
				C65.4,151.3,65.6,144.7,66.8,138.3z"/>
			<path fill="#E62926" d="M168.8,236.2c7.2-3.4,11.6-10,17.1-15.4c14-13.6,27.8-27.5,41.5-41.5c4-4.1,9-7.3,11.2-13
				c-3.1,17.6-11.1,32.7-23.6,45.3C202.3,224.7,186.9,233,168.8,236.2z"/>
			<path fill="#EF3B24" d="M202.1,79c-1.1,0.4-2,1.2-2.9,2c-38.9,38.9-77.8,77.8-116.7,116.7c-0.5,0.5-1,1.2-1.5,1.7
				c-0.7-0.7-1.3-1.4-1.6-2.4c-0.8-1.7-0.3-3.1,0.8-4.5c0.6-0.7,1.3-1.4,1.9-2c37-37,73.9-73.9,110.9-110.9c1-1,1.9-2,3.1-2.7
				c1.1-0.7,2.2-1,3.3,0C200.3,77.7,201.2,78.4,202.1,79z"/>
			<path fill="#EE3124" d="M231.1,112.8c-0.7,0.6-1.4,1.2-2.1,1.8c-37.3,37.3-74.5,74.5-111.8,111.8c-0.8,0.8-2.1,1.3-1.5,2.9
				c-0.8-0.4-1.7-0.9-2.5-1.3c-0.3-3.7,2.4-5.6,4.6-7.8c35.6-35.6,71.3-71.3,106.9-107c1.8-1.8,3.6-2.5,5.9-2
				C230.8,111.7,230.9,112.2,231.1,112.8z"/>
			<path fill="#EF3B24" d="M199.4,77c-1.5-0.5-2.6,0.2-3.7,1c-0.5,0.4-1,0.9-1.5,1.4c-37.4,37.4-74.9,74.9-112.3,112.3
				c-1.5,1.5-2.6,3.1-2.4,5.3c-0.7-0.7-1.3-1.6-1.6-2.5c0.9-1.6,2.2-3,3.5-4.3c37.1-37.1,74.2-74.2,111.3-111.3
				c1.3-1.3,2.7-2.6,4.3-3.5C198,75.8,198.9,76.1,199.4,77z"/>
		</g>
	</g>
</g>
</svg>
