<?xml version="1.0" encoding="utf-8"?>
<!-- Generator: Adobe Illustrator 18.0.0, SVG Export Plug-In . SVG Version: 6.00 Build 0)  -->
<!DOCTYPE svg PUBLIC "-//W3C//DTD SVG 1.1//EN" "http://www.w3.org/Graphics/SVG/1.1/DTD/svg11.dtd">
<svg version="1.1" id="Layer_1" xmlns="http://www.w3.org/2000/svg" xmlns:xlink="http://www.w3.org/1999/xlink" x="0px" y="0px"
	 viewBox="0 0 361 367" enable-background="new 0 0 361 367" xml:space="preserve">
<g id="_x36_nZWbz.tif">
	<g>
		<g>
		</g>
	</g>
</g>
<rect x="-375" y="-94" fill="#535353" width="302" height="412"/>
<g id="b6yrrQ_1_">
	<g>
		<g>
			<path fill="#FFFFFF" d="M329.9,190.9c0,48.1-0.1,96.2,0.1,144.3c0,4.7-1.1,5.8-5.8,5.8c-96.2-0.2-192.4-0.2-288.6,0
				c-4.7,0-5.8-1.1-5.8-5.8c0.2-96.2,0.2-192.4,0-288.6c0-4.7,1.1-5.8,5.8-5.8c96.2,0.2,192.4,0.2,288.6,0c4.7,0,5.8,1.1,5.8,5.8
				C329.8,94.7,329.9,142.8,329.9,190.9z"/>
			<path fill="#E32226" d="M180.4,42.7c81.5,0,147.7,66.6,147.7,148.5c0,82-66.6,148-149.2,147.9c-81.7-0.1-147.4-67-147.2-149.9
				C31.8,108.7,98.9,42.7,180.4,42.7z"/>
			<path fill="#FFFFFF" d="M288.7,190.6c0.2,60.4-48.3,109.1-108.8,109.1c-60.5,0-109-48.6-108.9-109.1
				C71.2,130.5,119.2,82.4,179.4,82C239.8,81.6,288.6,130.1,288.7,190.6z"/>
			<path fill="#E32226" d="M112.1,153.5c0.4-16.7,14.6-30.6,31.2-30.5c16.9,0.2,31.6,15.3,30.9,31.9c-0.7,16.6-15.6,30.7-31.8,30.1
				C125.7,184.5,111.7,170,112.1,153.5z"/>
			<path fill="#E32226" d="M247.7,153.7c0.2,16.5-13.9,31-30.5,31.4c-16.6,0.4-31.8-14.6-31.6-31.3c0.2-16.5,14.6-30.7,31.1-30.7
				C233.4,123,247.6,137.1,247.7,153.7z"/>
			<path fill="#E32226" d="M142.6,258.7c-16.7-0.3-30.7-14.5-30.6-31.1c0.1-16.9,15.2-31.6,31.8-31c16.6,0.7,30.7,15.5,30.2,31.7
				C173.6,245,159.1,259,142.6,258.7z"/>
			<path fill="#E32226" d="M217.1,258.7c-16.5,0.2-30.9-13.9-31.4-30.5c-0.4-16.6,14.6-31.7,31.3-31.6c16.5,0.2,30.7,14.6,30.7,31.1
				C247.8,244.4,233.7,258.5,217.1,258.7z"/>
		</g>
	</g>
</g>
</svg>
